<svg width="24" height="24" viewBox="0 0 24 24" fill="none" xmlns="http://www.w3.org/2000/svg" alt="American express"><path d="M24 12.9889V0H0V24H24V16.9978C23.9465 16.9978 24 12.9889 24 12.9889Z" fill="#006FCF"></path><path d="M21.0601 11.6526H22.8775V7.42987H20.8998V8.01784L20.5256 7.42987H18.8151V8.1782L18.4944 7.42987H15.3408C15.2339 7.42987 15.1269 7.48332 15.02 7.48332C14.9131 7.48332 14.8597 7.53677 14.7528 7.59023C14.6459 7.64368 14.5924 7.64368 14.4855 7.69713V7.42987H5.45212L5.18485 8.12475L4.91759 7.42987H2.77951V8.1782L2.4588 7.42987H0.74833L0 9.24724V11.6526H1.2294L1.44321 11.0646H1.87082L2.08463 11.6526H11.4922V11.1181L11.8664 11.6526H14.4855V11.3319C14.539 11.3853 14.6459 11.3853 14.6993 11.4388C14.7528 11.4922 14.8597 11.4922 14.9131 11.5457C15.02 11.5991 15.1269 11.5991 15.2339 11.5991H17.1581L17.3719 11.0112H17.7996L18.0134 11.5991H20.6325V11.0646L21.0601 11.6526ZM24 16.9978V13.0423H9.30067L8.9265 13.5769L8.55234 13.0423H4.27617V17.2651H8.55234L8.9265 16.7305L9.30067 17.2651H11.9733V16.3564H11.8664C12.2405 16.3564 12.5612 16.3029 12.8285 16.196V17.3185H14.7528V16.784L15.1269 17.3185H23.0913C23.412 17.2116 23.7327 17.1582 24 16.9978Z" fill="white"></path><path d="M23.0913 15.9822H21.6481V16.5701H23.0379C23.6258 16.5701 24 16.196 24 15.6614C24 15.1269 23.6793 14.8597 23.1448 14.8597H22.5033C22.343 14.8597 22.2361 14.7528 22.2361 14.5924C22.2361 14.432 22.343 14.3251 22.5033 14.3251H23.7327L24 13.7372H22.5568C21.9688 13.7372 21.5947 14.1113 21.5947 14.5924C21.5947 15.1269 21.9154 15.3942 22.4499 15.3942H23.0913C23.2517 15.3942 23.3586 15.5011 23.3586 15.6614C23.412 15.8753 23.3051 15.9822 23.0913 15.9822ZM20.4722 15.9822H19.029V16.5701H20.4187C21.0067 16.5701 21.3808 16.196 21.3808 15.6614C21.3808 15.1269 21.0601 14.8597 20.5256 14.8597H19.8842C19.7238 14.8597 19.6169 14.7528 19.6169 14.5924C19.6169 14.432 19.7238 14.3251 19.8842 14.3251H21.1136L21.3808 13.7372H19.9376C19.3497 13.7372 18.9755 14.1113 18.9755 14.5924C18.9755 15.1269 19.2962 15.3942 19.8307 15.3942H20.4722C20.6325 15.3942 20.7394 15.5011 20.7394 15.6614C20.7929 15.8753 20.6325 15.9822 20.4722 15.9822ZM18.6013 14.2717V13.6837H16.3563V16.5167H18.6013V15.9287H16.9978V15.3407H18.5479V14.7528H16.9978V14.2182H18.6013V14.2717ZM14.9666 14.2717C15.2339 14.2717 15.3408 14.432 15.3408 14.5924C15.3408 14.7528 15.2339 14.9131 14.9666 14.9131H14.1648V14.2182L14.9666 14.2717ZM14.1648 15.5011H14.4855L15.3408 16.5167H16.1425L15.1804 15.4476C15.6615 15.3407 15.9287 15.02 15.9287 14.5924C15.9287 14.0579 15.5546 13.6837 14.9666 13.6837H13.4699V16.5167H14.1114L14.1648 15.5011ZM12.4543 14.6459C12.4543 14.8597 12.3474 15.02 12.0802 15.02H11.2249V14.2717H12.0267C12.294 14.2717 12.4543 14.432 12.4543 14.6459ZM10.5835 13.6837V16.5167H11.2249V15.5545H12.0802C12.6682 15.5545 13.0958 15.1804 13.0958 14.5924C13.0958 14.0579 12.7216 13.6303 12.1336 13.6303L10.5835 13.6837ZM9.62138 16.5167H10.4232L9.30067 15.0735L10.4232 13.6837H9.62138L8.9265 14.5924L8.23163 13.6837H7.42984L8.55234 15.0735L7.42984 16.4632H8.23163L8.9265 15.5545L9.62138 16.5167ZM7.21604 14.2717V13.6837H4.97105V16.5167H7.21604V15.9287H5.61247V15.3407H7.16258V14.7528H5.61247V14.2182H7.21604V14.2717ZM20.2049 9.24719L21.3274 10.9577H22.1292V8.12469H21.4878V9.99552L21.3274 9.72826L20.3118 8.12469H19.4566V10.9577H20.098V9.03338L20.2049 9.24719ZM17.4254 9.19374L17.6392 8.60576L17.853 9.19374L18.1203 9.83516H17.1581L17.4254 9.19374ZM18.5479 10.9577H19.2428L18.0134 8.12469H17.1581L15.9287 10.9577H16.6236L16.8909 10.3697H18.2806L18.5479 10.9577ZM15.5546 10.9577L15.8218 10.3697H15.6615C15.1804 10.3697 14.9131 10.049 14.9131 9.5679V9.51445C14.9131 9.03338 15.1804 8.71267 15.6615 8.71267H16.3563V8.12469H15.608C14.7528 8.12469 14.2717 8.71267 14.2717 9.51445V9.5679C14.2717 10.4231 14.7528 10.9577 15.5546 10.9577ZM13.1492 10.9577H13.7906V8.17815H13.1492V10.9577ZM11.7595 8.71267C12.0267 8.71267 12.1336 8.87302 12.1336 9.03338C12.1336 9.19374 12.0267 9.35409 11.7595 9.35409H10.9577V8.65922L11.7595 8.71267ZM10.9577 9.94207H11.2784L12.1336 10.9577H12.9354L11.9733 9.88862C12.4543 9.78171 12.7216 9.461 12.7216 9.03338C12.7216 8.49886 12.3474 8.12469 11.7595 8.12469H10.2628V10.9577H10.9042L10.9577 9.94207ZM9.78174 8.71267V8.12469H7.53675V10.9577H9.78174V10.3697H8.17817V9.78171H9.72829V9.19374H8.17817V8.65922H9.78174V8.71267ZM4.91759 10.9577H5.50557L6.30735 8.65922V10.9577H6.94878V8.12469H5.87973L5.23831 10.049L4.59688 8.12469H3.52784V10.9577H4.16927V8.65922L4.91759 10.9577ZM1.44321 9.19374L1.65702 8.60576L1.87082 9.19374L2.13808 9.83516H1.17595L1.44321 9.19374ZM2.5657 10.9577H3.26058L2.03118 8.12469H1.2294L0 10.9577H0.694878L0.962138 10.3697H2.35189L2.5657 10.9577Z" fill="#006FCF"></path></svg>