<svg width="48" height="48" viewBox="0 0 48 48" class="belco-oqfdsj"><g fill="none" style="stroke: rgb(235, 235, 235);"><path d="M12.918 31.824c-5.787-1.006-9.212-5.906-9.212-11.87 0-6.692 4.598-12.062 10.598-12.062h10.992c6 0 10.863 5.118 10.863 11.81 0 6.694-4.864 11.812-10.864 11.812h-3.464L12.918 40.5v-8.676zM23.178 31.768c1.402 2.105 3.646 3.685 6.178 3.685h2.982l4.966 4.96V35.02c3.858-.147 7.5-3.934 7.5-8.587 0-4.743-3.424-8.486-7.676-8.486M11.953 18.81h15.435M11.953 14.874h15.435M11.953 22.748h7.72"></path></g></svg>