<svg xmlns="http://www.w3.org/2000/svg" x="0" y="0" enable-background="new 0 0 100 22.07" width="50" version="1.1" viewBox="0 0 100 22.07" xml:space="preserve" alt="dhl"><path fill="#FC0" d="M100 0L100 22.07 0 22.07 0 0 100 0z"></path><path fill="#D3072A" d="M17.59 3.96l-3.2 4.34H31.8c.88 0 .87.33.44.92-.44.59-1.17 1.62-1.61 2.22-.23.31-.63.86.72.86h7.12s1.15-1.56 2.11-2.87c1.31-1.78.11-5.47-4.57-5.47H17.59z"></path><path fill="#D3072A" d="M13.1 18.1l6.42-8.72h7.96c.88 0 .87.33.44.92-.44.59-1.18 1.61-1.63 2.21-.23.3-.63.86.72.86h10.67c-.89 1.22-3.77 4.73-8.93 4.73H13.1z"></path><path fill="#D3072A" d="M49.85 13.37L46.37 18.1 37.19 18.1 40.67 13.37 49.85 13.37z"></path><path fill="#D3072A" d="M63.91 12.3L41.46 12.3 47.6 3.96 56.78 3.96 53.26 8.75 57.35 8.75 60.87 3.96 70.05 3.96 63.91 12.3z"></path><path fill="#D3072A" d="M63.12 13.37L59.64 18.1 50.47 18.1 53.95 13.37 63.12 13.37z"></path><path fill="#D3072A" d="M0 15.24L13.52 15.24 12.78 16.24 0 16.24 0 15.24z"></path><path fill="#D3072A" d="M0 13.37L14.9 13.37 14.16 14.38 0 14.38 0 13.37z"></path><path fill="#D3072A" d="M0 17.11L12.15 17.11 11.41 18.1 0 18.1 0 17.11z"></path><path fill="#D3072A" d="M100 16.24L86.53 16.24 87.27 15.24 100 15.24 100 16.24z"></path><path fill="#D3072A" d="M100 18.1L85.16 18.11 85.89 17.11 100 17.11 100 18.1z"></path><path fill="#D3072A" d="M88.64 13.37L100 13.37 100 14.38 87.9 14.38 88.64 13.37z"></path><path fill="#D3072A" d="M82.76 3.96L76.62 12.3 66.9 12.3 73.04 3.96 82.76 3.96z"></path><path fill="#D3072A" d="M66.11 13.37s-.67.92-1 1.36c-1.15 1.56-.13 3.37 3.63 3.37h14.74l3.48-4.73H66.11z"></path></svg>