<svg xmlns="http://www.w3.org/2000/svg" x="0" y="0" enable-background="new 0 0 100 26.82" version="1.1" width="50" viewBox="0 0 100 26.82" xml:space="preserve" alt="gls"><path fill="#123E8C" d="M37.28 21.85a2.59 2.59 0 00-1.01-.22c-1.09 0-1.82.93-1.82 2.02 0 .54.29 1.07 1.09 1.07.26 0 .48-.04.69-.11l.28-1.51h.64l-.37 1.97c-.42.16-.93.24-1.36.24-1.15 0-1.68-.67-1.68-1.59 0-1.55 1.11-2.69 2.59-2.69.4 0 .79.06 1.14.17l-.19.65zM39.26 22.62c-.43 0-.73.4-.85.87.82-.03 1.21-.2 1.21-.56 0-.2-.14-.31-.36-.31m-.93 1.33c-.01.08-.02.22-.02.31 0 .42.15.53.6.53.28 0 .59-.07.86-.18v.52a3 3 0 01-1.07.19c-.72 0-1.04-.33-1.04-1.02 0-1.23.7-2.17 1.67-2.17.69 0 .92.36.92.72 0 .69-.68 1.06-1.92 1.1zM43.02 25.26h-.63l.37-1.94c.08-.44.01-.62-.23-.62-.48 0-1.08 1.1-1.21 1.84l-.13.73h-.63l.3-1.6c.1-.51.19-1.05.26-1.46h.63c-.04.19-.11.52-.31 1.09l.01.01c.28-.61.73-1.17 1.34-1.17.57 0 .75.41.63 1.04l-.4 2.08zM45.55 22.62c-.44 0-.72.4-.85.87.82-.03 1.21-.2 1.21-.56 0-.2-.14-.31-.36-.31m-.93 1.33c-.01.08-.02.22-.02.31 0 .42.15.53.6.53.28 0 .59-.07.86-.18v.52a3 3 0 01-1.07.19c-.73 0-1.04-.33-1.04-1.02 0-1.23.7-2.17 1.67-2.17.69 0 .92.36.92.72 0 .69-.68 1.06-1.92 1.1zM48.96 22.77c-.5-.15-1.06.88-1.24 1.81l-.13.68h-.63l.3-1.6c.08-.43.18-1.01.26-1.46h.62c-.04.25-.12.55-.28 1.04l.01.01c.33-.7.68-1.2 1.23-1.1l-.14.62zM51 22.66c-.8 0-1.14.89-1.14 1.6 0 .35.1.5.27.5.51 0 1.08-1.13 1.21-1.83l.04-.22a1.4 1.4 0 00-.38-.05m.55 2.6h-.63c.05-.25.16-.62.32-1.12l-.01-.01c-.23.46-.66 1.2-1.34 1.2-.44 0-.68-.3-.68-.95 0-1.14.59-2.23 1.9-2.23.35 0 .69.03 1 .09-.3 1.56-.44 2.26-.56 3.02z" class="st0"></path><path fill="#123E8C" d="M53.09 25.26L52.46 25.26 53.24 21.03 53.87 21.03z" class="st0"></path><path fill="#123E8C" d="M57.59 25.26L55.58 25.26 56.37 21.02 57.01 21.02 56.33 24.67 57.7 24.67z" class="st0"></path><path fill="#123E8C" d="M59.84 22.69c-.62 0-1.01.72-1.01 1.42 0 .4.16.64.56.64.57 0 1.02-.63 1.02-1.43.01-.41-.17-.63-.57-.63m-.54 2.63c-.79 0-1.14-.4-1.14-1.1 0-1.25.8-2.09 1.77-2.09.82 0 1.15.46 1.15 1.12.01 1.26-.86 2.07-1.78 2.07zM63.35 22.66c-.8 0-1.14.89-1.14 1.6 0 .35.1.5.27.5.51 0 1.08-1.13 1.22-1.83l.04-.22c-.11-.03-.24-.05-.39-.05m.49 2.84c-.14.78-.63 1.32-1.79 1.32-.34 0-.61-.05-.84-.12l.15-.62c.23.12.54.18.81.18.6 0 .95-.23 1.07-.86.08-.42.15-.65.34-1.23h-.01c-.22.44-.65 1.17-1.33 1.17-.44 0-.68-.3-.68-.95 0-1.14.59-2.23 1.9-2.23.35 0 .69.03 1 .09l-.62 3.25zM65.83 21.74c-.23 0-.39-.19-.39-.4.01-.25.21-.43.44-.43.22 0 .39.18.38.39 0 .25-.21.44-.43.44m-.39 3.52h-.64l.57-3.07H66l-.56 3.07zM68.32 22.7c-.13-.05-.28-.07-.43-.07-.36 0-.54.16-.54.39 0 .44.85.59.85 1.27 0 .51-.44 1.03-1.33 1.03-.2 0-.36-.02-.51-.05l.11-.57c.15.05.31.08.48.08.36 0 .59-.14.59-.42 0-.45-.85-.54-.85-1.27 0-.54.42-.96 1.23-.96.2 0 .36.02.51.05l-.11.52zM70.89 22.7h-.77l-.28 1.51c-.08.43-.02.54.25.54.16 0 .28-.02.4-.04l-.05.54c-.19.04-.41.07-.59.07-.63 0-.8-.3-.66-1.02l.3-1.59h-.57l.1-.51h.56l.18-.98.66-.14-.21 1.12h.77l-.09.5zM72.25 21.74c-.23 0-.39-.19-.39-.4.01-.25.21-.43.44-.43.22 0 .39.18.38.39 0 .25-.2.44-.43.44m-.39 3.52h-.63l.57-3.07h.64l-.58 3.07zM75.13 22.8c-.15-.07-.31-.11-.51-.11-.7 0-1.02.8-1.02 1.44 0 .31.11.6.58.6.22 0 .45-.05.63-.14l-.05.58c-.21.07-.48.14-.76.14-.79 0-1.07-.43-1.07-1.04 0-1.17.66-2.14 1.74-2.14.24 0 .43.03.62.09l-.16.58zM77.33 22.7c-.13-.05-.28-.07-.43-.07-.36 0-.54.16-.54.39 0 .44.85.59.85 1.27 0 .51-.44 1.03-1.33 1.03-.2 0-.36-.02-.51-.05l.11-.57c.15.05.31.08.48.08.36 0 .59-.14.59-.42 0-.45-.85-.54-.85-1.27 0-.54.42-.96 1.23-.96.2 0 .36.02.51.05l-.11.52zM81.77 21.69c-.2-.07-.41-.1-.57-.1-.57 0-.82.31-.82.62 0 .7 1.21.72 1.21 1.71 0 .79-.68 1.4-1.65 1.4-.24 0-.5-.02-.7-.08l.12-.64c.18.07.42.13.63.13.58 0 .9-.28.9-.7 0-.67-1.2-.67-1.2-1.67 0-.72.53-1.33 1.55-1.33.22 0 .41.01.64.06l-.11.6zM82.79 26.25c-.37.38-.76.56-1.12.56-.15 0-.31-.02-.44-.05l.11-.58c.12.04.24.06.37.06.21 0 .43-.11.62-.31.21-.22.31-.48.31-.89 0-.84-.18-1.85-.45-2.85h.71c.19.74.33 1.66.33 2.31 0 .09-.02.22-.04.32h.01c.44-.81.83-1.65 1.27-2.76l.61.17c-.83 1.98-1.55 3.28-2.29 4.02M86.94 22.7c-.13-.05-.28-.07-.43-.07-.36 0-.54.16-.54.39 0 .44.85.59.85 1.27 0 .51-.44 1.03-1.33 1.03-.2 0-.36-.02-.51-.05l.11-.57c.15.05.31.08.48.08.36 0 .59-.14.59-.42 0-.45-.85-.54-.85-1.27 0-.54.42-.96 1.23-.96.2 0 .36.02.51.05l-.11.52zM89.51 22.7h-.77l-.28 1.51c-.08.43-.02.54.25.54.16 0 .28-.02.4-.04l-.05.54c-.19.04-.41.07-.59.07-.63 0-.8-.3-.66-1.02l.3-1.59h-.57l.1-.51h.56l.18-.98.66-.14-.21 1.12h.77l-.09.5zM91.46 22.62c-.43 0-.72.4-.85.87.82-.03 1.21-.2 1.21-.56 0-.2-.14-.31-.36-.31m-.93 1.33c-.01.08-.02.22-.02.31 0 .42.15.53.6.53.28 0 .59-.07.86-.18v.52a3 3 0 01-1.07.19c-.72 0-1.04-.33-1.04-1.02 0-1.23.7-2.17 1.67-2.17.69 0 .93.36.93.72-.01.69-.69 1.06-1.93 1.1zM97 25.26h-.63l.36-1.94c.09-.44.01-.62-.21-.62-.4 0-1.02.93-1.19 1.84l-.14.73h-.63l.36-1.94c.08-.44.01-.62-.21-.62-.45 0-1.05 1.05-1.2 1.84l-.13.73h-.63l.3-1.6c.1-.51.19-1.04.26-1.46h.63c-.04.2-.12.53-.31 1.09l.01.01c.28-.61.72-1.17 1.32-1.17.37 0 .61.22.61.6 0 .16-.04.31-.12.57h.01c.28-.62.72-1.18 1.32-1.18.55 0 .74.41.62 1.04l-.4 2.08zM99.88 22.7c-.13-.05-.28-.07-.43-.07-.36 0-.54.16-.54.39 0 .44.85.59.85 1.27 0 .51-.44 1.03-1.33 1.03-.2 0-.36-.02-.51-.05l.11-.57c.15.05.31.08.48.08.36 0 .59-.14.59-.42 0-.45-.85-.54-.85-1.27 0-.54.42-.96 1.23-.96.2 0 .36.02.51.05l-.11.52zM37.28 21.85a2.59 2.59 0 00-1.01-.22c-1.09 0-1.82.93-1.82 2.02 0 .54.29 1.07 1.09 1.07.26 0 .48-.04.69-.11l.28-1.51h.64l-.37 1.97c-.42.16-.93.24-1.36.24-1.15 0-1.68-.67-1.68-1.59 0-1.55 1.11-2.69 2.59-2.69.4 0 .79.06 1.14.17l-.19.65zM39.26 22.62c-.43 0-.73.4-.85.87.82-.03 1.21-.2 1.21-.56 0-.2-.14-.31-.36-.31m-.93 1.33c-.01.08-.02.22-.02.31 0 .42.15.53.6.53.28 0 .59-.07.86-.18v.52a3 3 0 01-1.07.19c-.72 0-1.04-.33-1.04-1.02 0-1.23.7-2.17 1.67-2.17.69 0 .92.36.92.72 0 .69-.68 1.06-1.92 1.1zM43.02 25.26h-.63l.37-1.94c.08-.44.01-.62-.23-.62-.48 0-1.08 1.1-1.21 1.84l-.13.73h-.63l.3-1.6c.1-.51.19-1.05.26-1.46h.63c-.04.19-.11.52-.31 1.09l.01.01c.28-.61.73-1.17 1.34-1.17.57 0 .75.41.63 1.04l-.4 2.08zM45.55 22.62c-.44 0-.72.4-.85.87.82-.03 1.21-.2 1.21-.56 0-.2-.14-.31-.36-.31m-.93 1.33c-.01.08-.02.22-.02.31 0 .42.15.53.6.53.28 0 .59-.07.86-.18v.52a3 3 0 01-1.07.19c-.73 0-1.04-.33-1.04-1.02 0-1.23.7-2.17 1.67-2.17.69 0 .92.36.92.72 0 .69-.68 1.06-1.92 1.1zM48.96 22.77c-.5-.15-1.06.88-1.24 1.81l-.13.68h-.63l.3-1.6c.08-.43.18-1.01.26-1.46h.62c-.04.25-.12.55-.28 1.04l.01.01c.33-.7.68-1.2 1.23-1.1l-.14.62zM51 22.66c-.8 0-1.14.89-1.14 1.6 0 .35.1.5.27.5.51 0 1.08-1.13 1.21-1.83l.04-.22a1.4 1.4 0 00-.38-.05m.55 2.6h-.63c.05-.25.16-.62.32-1.12l-.01-.01c-.23.46-.66 1.2-1.34 1.2-.44 0-.68-.3-.68-.95 0-1.14.59-2.23 1.9-2.23.35 0 .69.03 1 .09-.3 1.56-.44 2.26-.56 3.02z" class="st0"></path><path fill="#123E8C" d="M53.09 25.26L52.46 25.26 53.24 21.03 53.87 21.03z" class="st0"></path><path fill="#123E8C" d="M57.59 25.26L55.58 25.26 56.37 21.02 57.01 21.02 56.33 24.67 57.7 24.67z" class="st0"></path><path fill="#123E8C" d="M59.84 22.69c-.62 0-1.01.72-1.01 1.42 0 .4.16.64.56.64.57 0 1.02-.63 1.02-1.43.01-.41-.17-.63-.57-.63m-.54 2.63c-.79 0-1.14-.4-1.14-1.1 0-1.25.8-2.09 1.77-2.09.82 0 1.15.46 1.15 1.12.01 1.26-.86 2.07-1.78 2.07zM63.35 22.66c-.8 0-1.14.89-1.14 1.6 0 .35.1.5.27.5.51 0 1.08-1.13 1.22-1.83l.04-.22c-.11-.03-.24-.05-.39-.05m.49 2.84c-.14.78-.63 1.32-1.79 1.32-.34 0-.61-.05-.84-.12l.15-.62c.23.12.54.18.81.18.6 0 .95-.23 1.07-.86.08-.42.15-.65.34-1.23h-.01c-.22.44-.65 1.17-1.33 1.17-.44 0-.68-.3-.68-.95 0-1.14.59-2.23 1.9-2.23.35 0 .69.03 1 .09l-.62 3.25zM65.83 21.74c-.23 0-.39-.19-.39-.4.01-.25.21-.43.44-.43.22 0 .39.18.38.39 0 .25-.21.44-.43.44m-.39 3.52h-.64l.57-3.07H66l-.56 3.07zM68.32 22.7c-.13-.05-.28-.07-.43-.07-.36 0-.54.16-.54.39 0 .44.85.59.85 1.27 0 .51-.44 1.03-1.33 1.03-.2 0-.36-.02-.51-.05l.11-.57c.15.05.31.08.48.08.36 0 .59-.14.59-.42 0-.45-.85-.54-.85-1.27 0-.54.42-.96 1.23-.96.2 0 .36.02.51.05l-.11.52zM70.89 22.7h-.77l-.28 1.51c-.08.43-.02.54.25.54.16 0 .28-.02.4-.04l-.05.54c-.19.04-.41.07-.59.07-.63 0-.8-.3-.66-1.02l.3-1.59h-.57l.1-.51h.56l.18-.98.66-.14-.21 1.12h.77l-.09.5zM72.25 21.74c-.23 0-.39-.19-.39-.4.01-.25.21-.43.44-.43.22 0 .39.18.38.39 0 .25-.2.44-.43.44m-.39 3.52h-.63l.57-3.07h.64l-.58 3.07zM75.13 22.8c-.15-.07-.31-.11-.51-.11-.7 0-1.02.8-1.02 1.44 0 .31.11.6.58.6.22 0 .45-.05.63-.14l-.05.58c-.21.07-.48.14-.76.14-.79 0-1.07-.43-1.07-1.04 0-1.17.66-2.14 1.74-2.14.24 0 .43.03.62.09l-.16.58zM77.33 22.7c-.13-.05-.28-.07-.43-.07-.36 0-.54.16-.54.39 0 .44.85.59.85 1.27 0 .51-.44 1.03-1.33 1.03-.2 0-.36-.02-.51-.05l.11-.57c.15.05.31.08.48.08.36 0 .59-.14.59-.42 0-.45-.85-.54-.85-1.27 0-.54.42-.96 1.23-.96.2 0 .36.02.51.05l-.11.52zM81.77 21.69c-.2-.07-.41-.1-.57-.1-.57 0-.82.31-.82.62 0 .7 1.21.72 1.21 1.71 0 .79-.68 1.4-1.65 1.4-.24 0-.5-.02-.7-.08l.12-.64c.18.07.42.13.63.13.58 0 .9-.28.9-.7 0-.67-1.2-.67-1.2-1.67 0-.72.53-1.33 1.55-1.33.22 0 .41.01.64.06l-.11.6zM82.79 26.25c-.37.38-.76.56-1.12.56-.15 0-.31-.02-.44-.05l.11-.58c.12.04.24.06.37.06.21 0 .43-.11.62-.31.21-.22.31-.48.31-.89 0-.84-.18-1.85-.45-2.85h.71c.19.74.33 1.66.33 2.31 0 .09-.02.22-.04.32h.01c.44-.81.83-1.65 1.27-2.76l.61.17c-.83 1.98-1.55 3.28-2.29 4.02M86.94 22.7c-.13-.05-.28-.07-.43-.07-.36 0-.54.16-.54.39 0 .44.85.59.85 1.27 0 .51-.44 1.03-1.33 1.03-.2 0-.36-.02-.51-.05l.11-.57c.15.05.31.08.48.08.36 0 .59-.14.59-.42 0-.45-.85-.54-.85-1.27 0-.54.42-.96 1.23-.96.2 0 .36.02.51.05l-.11.52zM89.51 22.7h-.77l-.28 1.51c-.08.43-.02.54.25.54.16 0 .28-.02.4-.04l-.05.54c-.19.04-.41.07-.59.07-.63 0-.8-.3-.66-1.02l.3-1.59h-.57l.1-.51h.56l.18-.98.66-.14-.21 1.12h.77l-.09.5zM91.46 22.62c-.43 0-.72.4-.85.87.82-.03 1.21-.2 1.21-.56 0-.2-.14-.31-.36-.31m-.93 1.33c-.01.08-.02.22-.02.31 0 .42.15.53.6.53.28 0 .59-.07.86-.18v.52a3 3 0 01-1.07.19c-.72 0-1.04-.33-1.04-1.02 0-1.23.7-2.17 1.67-2.17.69 0 .93.36.93.72-.01.69-.69 1.06-1.93 1.1zM97 25.26h-.63l.36-1.94c.09-.44.01-.62-.21-.62-.4 0-1.02.93-1.19 1.84l-.14.73h-.63l.36-1.94c.08-.44.01-.62-.21-.62-.45 0-1.05 1.05-1.2 1.84l-.13.73h-.63l.3-1.6c.1-.51.19-1.04.26-1.46h.63c-.04.2-.12.53-.31 1.09l.01.01c.28-.61.72-1.17 1.32-1.17.37 0 .61.22.61.6 0 .16-.04.31-.12.57h.01c.28-.62.72-1.18 1.32-1.18.55 0 .74.41.62 1.04l-.4 2.08zM99.88 22.7c-.13-.05-.28-.07-.43-.07-.36 0-.54.16-.54.39 0 .44.85.59.85 1.27 0 .51-.44 1.03-1.33 1.03-.2 0-.36-.02-.51-.05l.11-.57c.15.05.31.08.48.08.36 0 .59-.14.59-.42 0-.45-.85-.54-.85-1.27 0-.54.42-.96 1.23-.96.2 0 .36.02.51.05l-.11.52z" class="st0"></path><path fill="#123E8C" d="M52.77 14.12L54.93 3.02 51.16 3.02 48.31 17.81 55.18 17.82 55.87 14.12z" class="st0"></path><path fill="#123E8C" d="M63.83 6.29c.62 0 1.51.15 2.05.34l.64-3.41a15.6 15.6 0 00-2.56-.21c-4.09 0-6.01 2.44-6.01 5.17 0 3.58 3.64 3.54 3.64 5.06 0 .76-.54 1.19-1.69 1.19-.81 0-1.92-.19-2.58-.45l-.7 3.66c.76.15 1.84.26 2.91.26 3.66 0 6.22-2.44 6.22-5.38 0-3.47-3.66-3.54-3.66-5.06-.01-.68.44-1.17 1.74-1.17M45.34 3.02c-5.62 0-9.23 4.21-9.23 9.37 0 3.23 1.7 5.46 5.99 5.46 1.7 0 3.49-.31 4.92-.93l1.38-7.15h-3.77l-.81 4.36c-.33.08-.73.11-1.04.11-1.89 0-2.57-1.04-2.57-2.42 0-2.57 1.58-5.23 4.79-5.23.9 0 1.89.17 2.78.44.09.03.18.05.28.09.32.11.59.23.79.33l.77-3.87c-1.3-.34-2.85-.56-4.28-.56" class="st0"></path><path fill="#FCBF00" d="M17.11 3.06L16.1 7.97h6.98c-5.78 8.57-17.26 7.11-20.3 3.56C.17 8.47 2.42 3.24 10.17 0 2.5 2.33-1.8 8.46.73 12.59c2.87 4.68 11.8 6.63 19.75 4.36 5.31-1.87 7.57-4.48 8.4-5.89l-1.3 6.79h5.22l2.83-14.79H17.11z" class="st1"></path></svg>