<svg width="32" height="32" viewBox="0 0 32 32" fill="#941bb7" xmlns="http://www.w3.org/2000/svg"><path fill-rule="evenodd" clip-rule="evenodd" d="M15.9957 8.5887C18.8444 8.5887 19.1788 8.6014 20.3047 8.65221C21.346 8.69878 21.9089 8.87235 22.2856 9.02053C22.7851 9.21528 23.1407 9.4439 23.5131 9.81646C23.8856 10.189 24.1184 10.5446 24.3089 11.0442C24.4528 11.421 24.6306 11.9841 24.6772 13.0256C24.728 14.1517 24.7407 14.4862 24.7407 17.3354C24.7407 20.1847 24.728 20.5191 24.6772 21.6453C24.6306 22.6867 24.4571 23.2498 24.3089 23.6266C24.1142 24.1262 23.8856 24.4818 23.5131 24.8544C23.1407 25.2269 22.7851 25.4598 22.2856 25.6503C21.9089 25.7942 21.346 25.972 20.3047 26.0186C19.1788 26.0694 18.8444 26.0821 15.9957 26.0821C13.147 26.0821 12.8126 26.0694 11.6867 26.0186C10.6454 25.972 10.0825 25.7985 9.70574 25.6503C9.20627 25.4555 8.85071 25.2269 8.47823 24.8544C8.10574 24.4818 7.87293 24.1262 7.68246 23.6266C7.53854 23.2498 7.36076 22.6867 7.3142 21.6453C7.26341 20.5191 7.25071 20.1847 7.25071 17.3354C7.25071 14.4862 7.26341 14.1517 7.3142 13.0256C7.36076 11.9841 7.53431 11.421 7.68246 11.0442C7.87717 10.5446 8.10574 10.189 8.47823 9.81646C8.85071 9.4439 9.20627 9.21105 9.70574 9.02053C10.0825 8.87659 10.6454 8.69878 11.6867 8.65221C12.8126 8.59717 13.1512 8.5887 15.9957 8.5887ZM15.9957 6.66663C13.1004 6.66663 12.7364 6.67933 11.5978 6.73013C10.4634 6.78093 9.68881 6.96298 9.01156 7.22547C8.30891 7.49642 7.71632 7.86475 7.12373 8.45746C6.53114 9.05017 6.16711 9.64711 5.89198 10.3457C5.62955 11.023 5.44754 11.7978 5.39674 12.9367C5.34595 14.0713 5.33325 14.4354 5.33325 17.3312C5.33325 20.227 5.34595 20.5911 5.39674 21.7299C5.44754 22.8645 5.62955 23.6393 5.89198 24.3209C6.16288 25.0237 6.53114 25.6164 7.12373 26.2091C7.71632 26.8018 8.31315 27.1659 9.01156 27.4411C9.68881 27.7036 10.4634 27.8857 11.602 27.9365C12.7407 27.9873 13.1004 28 15.9999 28C18.8994 28 19.2592 27.9873 20.3978 27.9365C21.5322 27.8857 22.3068 27.7036 22.9883 27.4411C23.6909 27.1702 24.2835 26.8018 24.8761 26.2091C25.4687 25.6164 25.8327 25.0195 26.1079 24.3209C26.3703 23.6435 26.5523 22.8688 26.6031 21.7299C26.6539 20.5911 26.6666 20.2312 26.6666 17.3312C26.6666 14.4311 26.6539 14.0713 26.6031 12.9324C26.5523 11.7978 26.3703 11.023 26.1079 10.3414C25.837 9.63864 25.4687 9.04593 24.8761 8.45322C24.2835 7.86051 23.6867 7.49642 22.9883 7.22123C22.311 6.95875 21.5364 6.7767 20.3978 6.7259C19.2549 6.67933 18.8909 6.66663 15.9957 6.66663ZM15.9957 11.8571C12.9735 11.8571 10.5184 14.3084 10.5184 17.3354C10.5184 20.3625 12.9692 22.8137 15.9957 22.8137C19.0222 22.8137 21.4729 20.3625 21.4729 17.3354C21.4729 14.3084 19.0222 11.8571 15.9957 11.8571ZM15.9957 20.8874C14.0317 20.8874 12.4401 19.2956 12.4401 17.3312C12.4401 15.3668 14.0317 13.7749 15.9957 13.7749C17.9597 13.7749 19.5513 15.3668 19.5513 17.3312C19.5513 19.2956 17.9597 20.8874 15.9957 20.8874ZM22.9676 11.6369C22.9676 12.3431 22.3952 12.9155 21.689 12.9155C20.9829 12.9155 20.4105 12.3431 20.4105 11.6369C20.4105 10.9308 20.9829 10.3584 21.689 10.3584C22.3952 10.3584 22.9676 10.9308 22.9676 11.6369Z"></path></svg>