<svg width="32" height="32" viewBox="0 0 32 32" fill="#0b66c2" xmlns="http://www.w3.org/2000/svg"><path d="M10.341 8.013C10.341 9.235 9.43901 10.224 7.95501 10.224C6.55901 10.224 5.65601 9.235 5.65601 8.013C5.65601 6.763 6.58801 5.802 8.01301 5.802C9.43801 5.802 10.312 6.763 10.34 8.013H10.341ZM5.77401 26.199V11.971H10.196V26.199H5.77401ZM12.843 16.509C12.843 14.735 12.784 13.251 12.726 11.971H16.567L16.772 13.95H16.859C17.44 13.018 18.867 11.651 21.253 11.651C24.162 11.651 26.344 13.6 26.344 17.79V26.199H21.922V18.314C21.922 16.481 21.281 15.229 19.681 15.229C18.459 15.229 17.733 16.073 17.412 16.887C17.295 17.178 17.266 17.585 17.266 17.993V26.199H12.844V16.508L12.843 16.509Z"></path></svg>