<svg width="25" height="16" viewBox="0 0 25 16" fill="none" xmlns="http://www.w3.org/2000/svg" alt="Mastercard"><path d="M7.81252 16C12.1272 16 15.6251 12.4183 15.6251 7.99998C15.6251 3.58172 12.1272 0 7.81252 0C3.49779 0 0 3.58172 0 7.99998C0 12.4183 3.49779 16 7.81252 16Z" fill="#E7001A"></path><path d="M17.1874 16C21.5021 16 24.9999 12.4183 24.9999 7.99998C24.9999 3.58172 21.5021 0 17.1874 0C12.8727 0 9.37488 3.58172 9.37488 7.99998C9.37488 12.4183 12.8727 16 17.1874 16Z" fill="#F49B1C"></path><path opacity="0.3" fill-rule="evenodd" clip-rule="evenodd" d="M12.4999 1.59943C14.3975 3.05895 15.6249 5.38269 15.6249 7.99999C15.6249 10.6173 14.3975 12.941 12.4999 14.4006C10.6023 12.941 9.37488 10.6173 9.37488 7.99999C9.37488 5.38269 10.6023 3.05895 12.4999 1.59943Z" fill="#E7001A"></path></svg>