<svg width="65" height="16" viewBox="0 0 65 16" fill="none" xmlns="http://www.w3.org/2000/svg" alt="Paypal"><path d="M24.3047 3.57825H20.7077C20.5887 3.57817 20.4735 3.62097 20.3829 3.69893C20.2924 3.77689 20.2324 3.88488 20.2139 4.00346L18.7591 13.3014C18.7524 13.3445 18.7551 13.3886 18.7669 13.4306C18.7787 13.4726 18.7995 13.5115 18.8277 13.5447C18.8559 13.5778 18.8908 13.6044 18.9302 13.6227C18.9696 13.6409 19.0124 13.6503 19.0557 13.6502H20.7729C20.8921 13.6503 21.0074 13.6074 21.0979 13.5293C21.1885 13.4513 21.2484 13.3432 21.2668 13.2245L21.6592 10.7167C21.6776 10.5981 21.7374 10.4901 21.8279 10.412C21.9183 10.334 22.0334 10.291 22.1525 10.291H23.2912C25.6606 10.291 27.0281 9.13514 27.3852 6.84473C27.5461 5.84268 27.392 5.05535 26.9266 4.50395C26.4153 3.89848 25.5086 3.57825 24.3047 3.57825ZM24.7197 6.9741C24.523 8.27518 23.5368 8.27518 22.5833 8.27518H22.0405L22.4213 5.84533C22.4324 5.77424 22.4684 5.7095 22.5227 5.66275C22.5769 5.616 22.646 5.59031 22.7174 5.59031H22.9662C23.6157 5.59031 24.2284 5.59031 24.5451 5.96356C24.7339 6.18624 24.7917 6.51708 24.7197 6.9741ZM35.0567 6.93221H33.3342C33.2628 6.93222 33.1938 6.9579 33.1395 7.00465C33.0852 7.0514 33.0492 7.11615 33.0381 7.18723L32.9618 7.67289L32.8414 7.49686C32.4685 6.9513 31.637 6.76892 30.807 6.76892C28.9036 6.76892 27.2779 8.22216 26.9613 10.2607C26.7967 11.2776 27.0307 12.25 27.6029 12.9281C28.1278 13.5516 28.8789 13.8114 29.7725 13.8114C31.3061 13.8114 32.1566 12.8173 32.1566 12.8173L32.0798 13.2998C32.073 13.3429 32.0755 13.387 32.0872 13.4291C32.0989 13.4711 32.1195 13.5102 32.1476 13.5434C32.1757 13.5767 32.2106 13.6034 32.2499 13.6217C32.2893 13.6401 32.3321 13.6496 32.3754 13.6497H33.927C34.0461 13.6497 34.1614 13.6069 34.2519 13.5288C34.3425 13.4507 34.4024 13.3426 34.4208 13.224L35.3517 7.28108C35.3586 7.23804 35.3561 7.19401 35.3444 7.15204C35.3327 7.11007 35.3122 7.07115 35.2841 7.03798C35.2561 7.00481 35.2212 6.97817 35.1819 6.95991C35.1427 6.94165 35.0999 6.9322 35.0567 6.93221ZM32.6557 10.3116C32.4895 11.3036 31.7085 11.9695 30.7123 11.9695C30.2122 11.9695 29.8124 11.8078 29.5558 11.5014C29.3012 11.197 29.2044 10.7639 29.2854 10.2814C29.4406 9.29791 30.2348 8.61026 31.2157 8.61026C31.7048 8.61026 32.1024 8.77409 32.3644 9.08319C32.6268 9.39547 32.7309 9.83128 32.6557 10.3116ZM44.2303 6.93221H42.4994C42.4178 6.93234 42.3374 6.95255 42.2653 6.99108C42.1931 7.0296 42.1314 7.08529 42.0855 7.1533L39.6982 10.6981L38.6863 7.29168C38.6552 7.18779 38.5918 7.09673 38.5054 7.03199C38.419 6.96725 38.3142 6.93227 38.2066 6.93221H36.5057C36.4579 6.93209 36.4109 6.94346 36.3683 6.96538C36.3258 6.9873 36.2891 7.01914 36.2613 7.05824C36.2335 7.09735 36.2153 7.14259 36.2083 7.1902C36.2013 7.23782 36.2057 7.28642 36.2211 7.33198L38.1277 12.9721L36.3353 15.5228C36.3034 15.5681 36.2845 15.6213 36.2807 15.6766C36.2768 15.7319 36.2881 15.7873 36.3134 15.8365C36.3386 15.8858 36.3769 15.9271 36.4239 15.956C36.4709 15.9848 36.5248 16 36.5798 16H38.3086C38.3894 16.0001 38.4689 15.9805 38.5404 15.9428C38.612 15.9052 38.6734 15.8505 38.7194 15.7837L44.4765 7.40673C44.5077 7.36141 44.526 7.30834 44.5294 7.25328C44.5328 7.19822 44.5212 7.14327 44.4958 7.09439C44.4705 7.0455 44.4323 7.00454 44.3855 6.97595C44.3387 6.94737 44.285 6.93224 44.2303 6.93221Z" fill="#253B80"></path><path d="M49.961 3.57829H46.3635C46.2446 3.57834 46.1295 3.62119 46.0391 3.69914C45.9486 3.77709 45.8887 3.88502 45.8702 4.0035L44.4154 13.3014C44.4087 13.3445 44.4112 13.3885 44.423 13.4305C44.4347 13.4724 44.4554 13.5114 44.4834 13.5445C44.5115 13.5777 44.5464 13.6043 44.5857 13.6226C44.625 13.6408 44.6678 13.6503 44.711 13.6503H46.5571C46.6404 13.6501 46.7209 13.6201 46.7841 13.5654C46.8474 13.5108 46.8892 13.4352 46.9021 13.3523L47.315 10.7167C47.3334 10.5982 47.3932 10.4901 47.4837 10.412C47.5741 10.334 47.6893 10.2911 47.8083 10.291H48.9465C51.3164 10.291 52.6834 9.13518 53.041 6.84477C53.2025 5.84272 53.0473 5.05539 52.5818 4.504C52.0712 3.89852 51.1649 3.57829 49.961 3.57829ZM50.376 6.97414C50.1798 8.27522 49.1937 8.27522 48.2396 8.27522H47.6974L48.0787 5.84537C48.0896 5.77428 48.1254 5.70948 48.1796 5.66271C48.2338 5.61593 48.3029 5.59026 48.3743 5.59035H48.623C49.272 5.59035 49.8853 5.59035 50.2019 5.9636C50.3907 6.18628 50.4481 6.51712 50.376 6.97414ZM60.7125 6.93226H58.9911C58.9197 6.93206 58.8506 6.95769 58.7963 7.00448C58.7421 7.05128 58.7063 7.11614 58.6955 7.18728L58.6192 7.67293L58.4983 7.49691C58.1254 6.95134 57.2944 6.76896 56.4644 6.76896C54.561 6.76896 52.9358 8.2222 52.6192 10.2608C52.4551 11.2777 52.6881 12.25 53.2603 12.9281C53.7863 13.5516 54.5363 13.8114 55.4299 13.8114C56.9635 13.8114 57.814 12.8173 57.814 12.8173L57.7372 13.2998C57.7304 13.343 57.7329 13.3872 57.7447 13.4294C57.7564 13.4715 57.7771 13.5106 57.8053 13.5439C57.8335 13.5771 57.8686 13.6038 57.908 13.6221C57.9475 13.6404 57.9904 13.6498 58.0338 13.6497H59.5849C59.7039 13.6497 59.8191 13.6067 59.9095 13.5287C60 13.4506 60.0598 13.3426 60.0782 13.224L61.0097 7.28112C61.0163 7.23794 61.0135 7.19384 61.0016 7.15183C60.9897 7.10983 60.9689 7.07092 60.9407 7.03777C60.9125 7.00463 60.8775 6.97804 60.8381 6.95982C60.7987 6.94161 60.7558 6.9322 60.7125 6.93226ZM58.3115 10.3117C58.1464 11.3037 57.3643 11.9696 56.3682 11.9696C55.869 11.9696 55.4683 11.8079 55.2116 11.5014C54.957 11.1971 54.8613 10.7639 54.9413 10.2815C55.0975 9.29795 55.8906 8.6103 56.8715 8.6103C57.3606 8.6103 57.7582 8.77413 58.0202 9.08323C58.2837 9.39551 58.3878 9.83132 58.3115 10.3117ZM62.7432 3.83331L61.2669 13.3014C61.2601 13.3445 61.2627 13.3885 61.2744 13.4305C61.2862 13.4724 61.3068 13.5114 61.3349 13.5445C61.363 13.5777 61.3979 13.6043 61.4372 13.6226C61.4764 13.6408 61.5192 13.6503 61.5624 13.6503H63.0467C63.2933 13.6503 63.5027 13.47 63.5405 13.2245L64.9964 3.92715C65.0031 3.88406 65.0005 3.83999 64.9888 3.798C64.9771 3.756 64.9564 3.71707 64.9284 3.68387C64.9003 3.65067 64.8654 3.62399 64.8261 3.60568C64.7868 3.58736 64.7441 3.57784 64.7008 3.57776H63.0388C62.9674 3.57801 62.8985 3.60387 62.8443 3.6507C62.7902 3.69752 62.7543 3.76226 62.7432 3.83331Z" fill="#179BD7"></path><path d="M3.8215 15.4571L4.09658 13.6959L3.48384 13.6815H0.557983L2.59131 0.685061C2.59736 0.645351 2.61737 0.609156 2.64768 0.583074C2.678 0.556992 2.7166 0.542759 2.75645 0.542971H7.68987C9.32767 0.542971 10.4579 0.886533 11.0481 1.56464C11.3247 1.88276 11.5009 2.21518 11.5861 2.58101C11.6755 2.96487 11.6771 3.42348 11.5898 3.98283L11.5835 4.02365V4.38206L11.8601 4.54005C12.0713 4.64792 12.2612 4.79382 12.4203 4.97057C12.6569 5.24255 12.81 5.58824 12.8747 5.99807C12.9415 6.41957 12.9194 6.92113 12.81 7.48896C12.6838 8.14215 12.4797 8.71104 12.2041 9.17655C11.9609 9.59356 11.634 9.95474 11.2442 10.2369C10.8782 10.4988 10.4432 10.6977 9.95145 10.8249C9.47494 10.95 8.93163 11.0131 8.33573 11.0131H7.95179C7.67724 11.0131 7.41059 11.1128 7.20126 11.2915C6.99223 11.472 6.85356 11.7215 6.80995 11.9956L6.78102 12.1541L6.29505 15.2583L6.27296 15.3723C6.26717 15.4084 6.25718 15.4264 6.24245 15.4386C6.22819 15.4504 6.21039 15.4569 6.19196 15.4571H3.8215Z" fill="#253B80"></path><path d="M12.122 4.06494C12.1072 4.15984 12.0904 4.25687 12.0715 4.35654C11.4209 7.72377 9.19506 8.887 6.3523 8.887H4.90488C4.55723 8.887 4.26428 9.14149 4.2101 9.48717L3.46904 14.2249L3.25919 15.5679C3.25083 15.6212 3.25402 15.6756 3.26854 15.7275C3.28307 15.7794 3.30857 15.8276 3.34332 15.8686C3.37806 15.9096 3.4212 15.9425 3.46978 15.9651C3.51836 15.9877 3.57122 15.9994 3.62472 15.9995H6.19188C6.49588 15.9995 6.75412 15.7768 6.80199 15.4746L6.82723 15.3431L7.31058 12.251L7.34161 12.0814C7.38895 11.7781 7.64771 11.5554 7.95171 11.5554H8.33566C10.8229 11.5554 12.7699 10.5375 13.339 7.59175C13.5767 6.36118 13.4537 5.33368 12.8246 4.61103C12.6253 4.38749 12.3872 4.20243 12.122 4.06494Z" fill="#179BD7"></path><path d="M11.4415 3.79138C11.2338 3.7308 11.0224 3.68352 10.8088 3.64982C10.3866 3.58442 9.95993 3.55303 9.53282 3.55598H5.66603C5.51888 3.55586 5.37653 3.60882 5.26473 3.70528C5.15294 3.80174 5.07906 3.93534 5.05646 4.08192L4.23387 9.33396L4.21021 9.48719C4.23583 9.31999 4.31997 9.16757 4.44741 9.05748C4.57485 8.9474 4.73716 8.88693 4.90498 8.88701H6.3524C9.19516 8.88701 11.421 7.72325 12.0716 4.35656C12.091 4.25688 12.1073 4.15986 12.1221 4.06496C11.9504 3.9742 11.7715 3.89812 11.5872 3.8375C11.5389 3.82134 11.4903 3.80597 11.4415 3.79138Z" fill="#222D65"></path><path d="M5.05644 4.08191C5.07884 3.93529 5.15268 3.80163 5.26454 3.70522C5.37639 3.60881 5.51884 3.55604 5.66601 3.5565H9.5328C9.9909 3.5565 10.4185 3.58672 10.8088 3.65034C11.0728 3.69218 11.3333 3.75476 11.5877 3.8375C11.7797 3.90165 11.958 3.97747 12.1226 4.06495C12.3161 2.8206 12.121 1.97336 11.4536 1.20618C10.7178 0.361588 9.38974 0 7.69039 0H2.75698C2.40986 0 2.11375 0.25449 2.0601 0.600702L0.00521201 13.7308C-0.00435931 13.7918 -0.000717746 13.8541 0.0158862 13.9135C0.0324901 13.9729 0.0616624 14.028 0.101396 14.0749C0.14113 14.1219 0.190483 14.1596 0.246059 14.1855C0.301635 14.2114 0.362117 14.2248 0.423342 14.2249H3.46912L4.23385 9.33395L5.05644 4.08191Z" fill="#253B80"></path></svg>