<svg width="21" height="24" viewBox="0 0 21 24" fill="none" xmlns="http://www.w3.org/2000/svg" alt="ups"><g clip-path="url(#clip0)"><path fill-rule="evenodd" clip-rule="evenodd" d="M0.689941 7.25448L0.775803 17L2.96534 19.7048L9.53417 23.1823L17.6055 19.2325L19.2798 15.2398L19.1081 2.31702L13.0117 2.14529L6.65776 3.17566L0.861923 6.52435L0.689941 7.25448Z" fill="#301506"></path><path d="M10.0947 0.211833C6.26851 0.211833 2.93099 0.9526 0.174316 2.41342V14.0922C0.174316 16.5496 1.09766 18.6046 2.84406 20.0362C4.46558 21.3663 9.48037 23.5583 10.0949 23.8245C10.6777 23.5709 15.7519 21.345 17.3477 20.0362C19.0931 18.6054 20.0167 16.5498 20.0167 14.0922V2.41342C17.2596 0.952407 13.9221 0.211639 10.0944 0.211639L10.0947 0.211833ZM15.7602 2.47317C16.9012 2.48808 18.0216 2.55857 19.1046 2.65922V14.0921C19.1046 16.2892 18.3074 18.0639 16.7692 19.3309C15.395 20.4626 11.2512 22.3192 10.0949 22.8288C8.92315 22.3123 4.76897 20.4323 3.41948 19.3314C1.89036 18.0861 1.08546 16.2692 1.08546 14.0926V7.41213C5.47973 3.38225 10.8157 2.40876 15.7599 2.47343L15.7602 2.47317ZM10.3534 7.79678C9.41195 7.79678 8.65236 8.00721 8.02699 8.41088V19.6595H9.75364V16.0254C9.92595 16.0762 10.1761 16.1237 10.5304 16.1237C12.4457 16.1237 13.5465 14.3972 13.5465 11.8762C13.5465 9.36021 12.413 7.79678 10.3534 7.79678L10.3534 7.79678ZM16.2532 7.79678C15.1176 7.82969 13.9301 8.65228 13.9374 10.0468C13.9403 10.965 14.1948 11.6516 15.6179 12.4866C16.3773 12.9324 16.6833 13.2261 16.6964 13.7678C16.7109 14.3699 16.2948 14.733 15.6617 14.7306C15.1109 14.7262 14.4524 14.4205 14.0115 14.0279V15.6169C14.5521 15.9393 15.2268 16.1524 15.9083 16.1524C17.614 16.1524 18.3757 14.9475 18.4086 13.8434C18.441 12.8371 18.163 12.0756 16.7205 11.2281C16.0768 10.8505 15.5684 10.6024 15.5853 9.97412C15.6023 9.36083 16.1114 9.14538 16.6003 9.14975C17.2034 9.15508 17.7868 9.48909 18.1469 9.85842V8.35791C17.8434 8.12412 17.2009 7.7677 16.2531 7.79674L16.2532 7.79678ZM1.96718 7.97148V13.3973C1.96718 15.2265 2.83244 16.1525 4.54012 16.1525C5.59679 16.1525 6.4818 15.908 7.14105 15.4597V7.97152H5.4182V14.4773C5.23039 14.6061 4.95182 14.6883 4.60138 14.6883C3.81046 14.6883 3.69228 13.9631 3.69228 13.4737V7.97161H1.96714L1.96718 7.97148ZM10.365 9.18687C11.3664 9.18687 11.7816 9.98642 11.7816 11.9202C11.7816 13.8069 11.3068 14.7185 10.3136 14.7185C10.0798 14.7185 9.87658 14.6606 9.75314 14.6141V9.31182C9.89302 9.24212 10.1307 9.18703 10.365 9.18703V9.18687Z" fill="#FAB80A"></path></g><defs><clipPath id="clip0"><rect width="21" height="24" fill="white"></rect></clipPath></defs></svg>