<svg width="49" height="16" viewBox="0 0 49 16" fill="none" xmlns="http://www.w3.org/2000/svg" alt="Visa"><path d="M21.2333 15.7692H17.2639L19.7466 0.280762H23.7158L21.2333 15.7692Z" fill="#00579F"></path><path d="M35.6225 0.659404C34.8396 0.346017 33.5978 0 32.0623 0C28.1425 0 25.3821 2.10895 25.3652 5.12412C25.3327 7.3487 27.3415 8.58429 28.844 9.32603C30.3797 10.084 30.9017 10.5787 30.9017 11.2543C30.8861 12.2919 29.6608 12.7702 28.518 12.7702C26.9332 12.7702 26.0841 12.5236 24.7937 11.9463L24.271 11.6989L23.7156 15.1757C24.6465 15.6036 26.3617 15.9834 28.1425 16C32.3074 16 35.0189 13.9237 35.051 10.7105C35.0668 8.94739 34.0061 7.59639 31.7192 6.49242C30.3309 5.78374 29.4806 5.30589 29.4806 4.58078C29.4969 3.9216 30.1998 3.24643 31.7669 3.24643C33.0573 3.21336 34.0054 3.52631 34.7237 3.83947L35.0827 4.00394L35.6225 0.659404Z" fill="#00579F"></path><path d="M40.8981 10.2822C41.225 9.3924 42.4828 5.94865 42.4828 5.94865C42.4663 5.98172 42.8091 5.04244 43.0051 4.46582L43.2825 5.80039C43.2825 5.80039 44.0341 9.50781 44.1974 10.2822C43.577 10.2822 41.6821 10.2822 40.8981 10.2822ZM45.7977 0.280762H42.7274C41.7806 0.280762 41.0613 0.560641 40.6528 1.56584L34.7568 15.769H38.9217C38.9217 15.769 39.6074 13.8573 39.7548 13.4456C40.2117 13.4456 44.2633 13.4456 44.8511 13.4456C44.9651 13.9894 45.3248 15.769 45.3248 15.769H49L45.7977 0.280762Z" fill="#00579F"></path><path d="M13.9486 0.280762L10.0613 10.8424L9.63656 8.70036C8.91788 6.22875 6.66395 3.5434 4.14868 2.20816L7.7093 15.7528H11.9068L18.1459 0.280762H13.9486Z" fill="#00579F"></path><path d="M6.45162 0.280762H0.0653342L0 0.59371C4.9817 1.87901 8.28098 4.97718 9.63651 8.70102L8.24821 1.58271C8.01965 0.593491 7.31725 0.313392 6.45162 0.280762Z" fill="#FAA61A"></path></svg>