<svg
    width="210"
    height="20"
    viewBox="0 0 210 20"
    fill="none"
    xmlns="http://www.w3.org/2000/svg"
    >
<path
fillRule="evenodd"
clipRule="evenodd"
d="M29.3486 0.522263H31.9123V17.6863H41.7808V19.5215H29.3486V0.522263Z"
fill="#333333"
/>
<mask
id="mask0"
masktype="alpha"
maskUnits="userSpaceOnUse"
x="0"
y="0"
width="210"
height="20"
>
<path
    d="M0.0224609 0.0444641H209.974V19.9778H0.0224609"
    fill="white"
/>
</mask>
<g mask="url(#mask0)">
<path
    fillRule="evenodd"
    clipRule="evenodd"
    d="M49.4331 0.522263H64.1324V2.38189H51.9961V17.6619H64.0264V19.5215H49.4331V0.522263Z"
    fill="#333333"
/>
<path
    fillRule="evenodd"
    clipRule="evenodd"
    d="M96.8756 3.71113L94.8863 5.10743C93.4567 4.0652 91.8897 3.2752 90.1878 2.7378C88.4852 2.20039 86.8249 1.92743 85.2078 1.92743C83.1974 1.92743 81.2849 2.2952 79.4641 3.0278C77.6449 3.75965 76.2345 4.7515 75.236 6.00372C74.2352 7.25669 73.7367 8.58224 73.7367 9.97706C73.7367 11.4045 74.2519 12.7641 75.2874 14.05C76.3215 15.3385 77.7515 16.35 79.5778 17.0859C81.4015 17.8234 83.4019 18.1915 85.5756 18.1915C88.2141 18.1915 90.4456 17.6422 92.2712 16.5367C94.0949 15.4356 95.1775 14.0067 95.5145 12.25H87.3367V10.4145H98.3919C98.3682 13.3519 97.1919 15.683 94.8615 17.4078C92.5286 19.1352 89.4115 20 85.5052 20C80.7626 20 77.0082 18.8034 74.2419 16.4078C72.1145 14.5659 71.0508 12.4348 71.0508 10.0145C71.0508 8.21632 71.6612 6.54002 72.8815 4.99076C74.1019 3.43965 75.7767 2.23076 77.903 1.35483C80.0297 0.48002 82.4363 0.0444641 85.1223 0.0444641C87.2971 0.0444641 89.3419 0.334094 91.2608 0.915946C93.1778 1.4952 95.05 2.42928 96.8756 3.71113Z"
    fill="#333333"
/>
</g>
<path
fillRule="evenodd"
clipRule="evenodd"
d="M117.001 4.55819L107.438 19.5215H104.578L116.697 0.522263H117.325L129.287 19.5215H126.518L117.001 4.55819Z"
fill="#333333"
/>
<path
fillRule="evenodd"
clipRule="evenodd"
d="M136.851 19.5215V0.522263H137.408L154.479 15.086V0.522263H157.006V19.5215H156.431L139.499 5.13263V19.5215H136.851Z"
fill="#333333"
/>
<path
fillRule="evenodd"
clipRule="evenodd"
d="M165.827 2.35448V0.522263H179.358L168.642 17.6619H178.817V19.5215H164.676L175.484 2.35448H165.827Z"
fill="#333333"
/>
<path
fillRule="evenodd"
clipRule="evenodd"
d="M197.688 4.55819L188.125 19.5215H185.266L197.384 0.522263H198.013L209.974 19.5215H207.206L197.688 4.55819Z"
fill="#333333"
/>
<path
fillRule="evenodd"
clipRule="evenodd"
d="M0.0224609 0.522263H20.2406V3.18523H0.0224609V0.522263Z"
fill="#333333"
/>
<path
fillRule="evenodd"
clipRule="evenodd"
d="M0.0224609 16.8593H20.2406V19.5215H0.0224609V16.8593Z"
fill="#333333"
/>
<path
fillRule="evenodd"
clipRule="evenodd"
d="M0.0224609 8.69083H10.1202V11.3553H0.0224609V8.69083Z"
fill="#52BBB9"
/>
<path
fillRule="evenodd"
clipRule="evenodd"
d="M49.4331 8.69075H59.5531V11.3552H49.4331V8.69075Z"
fill="#52BBB9"
/>
    </svg>
