<svg
        width="18"
        height="16"
        viewBox="0 0 18 16"
        fill="none"
        xmlns="http://www.w3.org/2000/svg"
>
    <path
            fillRule="evenodd"
            clipRule="evenodd"
            d="M9.89301 0.48574C9.49816 -0.161914 8.50183 -0.161913 8.10699 0.48574L4.52595 6.35964H1.02895C0.369838 6.35964 -0.119171 6.93258 0.0255122 7.5353L1.87685 15.2476C1.98245 15.6875 2.39924 16 2.88029 16H15.1197C15.6008 16 16.0176 15.6875 16.1231 15.2476L17.9745 7.5353C18.1192 6.93258 17.6302 6.35964 16.9711 6.35964H13.474L9.89301 0.48574ZM11.5787 6.35964L9 2.12988L6.42131 6.35964H11.5787ZM3.37398 14.4575L1.80034 7.9021H16.1997L14.626 14.4575H3.37398Z"
            fill="#4A4A4A"
    ></path>
</svg>